<?xml version="1.0" encoding="utf-8"?>
<!-- Generator: Adobe Illustrator 26.0.3, SVG Export Plug-In . SVG Version: 6.00 Build 0)  -->
<svg version="1.1" id="Layer_1" xmlns="http://www.w3.org/2000/svg" xmlns:xlink="http://www.w3.org/1999/xlink" x="0px" y="0px"
	 viewBox="0 0 294 100" style="enable-background:new 0 0 294 100;" xml:space="preserve">
<style type="text/css">
	.st0{fill:#010101;}
</style>
<path class="st0" d="M129.1,16.2h45.7v10.3h-34v17.3h33.3v10.3h-33.3v18.5h34v10.3h-45.7C129.1,82.9,129.1,16.2,129.1,16.2z
	 M202.7,26.5h-20.2V16.2h52.1v10.3h-20.2v56.4h-11.7C202.7,82.9,202.7,26.5,202.7,26.5z M246.2,64.5c4.6,4.9,11.8,9.2,21.1,9.2
	c9.6,0,13.4-4.7,13.4-9.1c0-6-7.1-7.8-15.2-9.9c-10.9-2.7-23.7-5.9-23.7-20c0-11,9.7-19.5,24.3-19.5c10.4,0,18.8,3.3,25,9.3
	l-6.7,8.7c-5.2-5.2-12.3-7.6-19.3-7.6c-6.9,0-11.3,3.3-11.3,8.3c0,5.2,6.8,6.9,14.7,8.9c11,2.8,24.1,6.2,24.1,20.7
	c0,11.1-7.8,20.6-25.8,20.6c-12.3,0-21.2-4.3-27.1-10.6L246.2,64.5z"/>
<g>
	<path class="st0" d="M0,49.7l50-50H0V49.7z M100,99.7v-50l-50,50H100z M50-0.3l50,50v-50H50z"/>
	<circle class="st0" cx="14.9" cy="84.7" r="5"/>
</g>
</svg>
